

[center]



[img]http://img546.imageshack.us/img546/4441/blrfx.jpg[/img]


Jerusalem Countdown 2011 DVDRip DivX5-NoGRP


 
http://www.imdb.com/title/tt1562563/

General
Complete name                    : Jerusalem.Countdown.2011.DVDRip.DivX5-NoGRP.avi
Format                         : AVI
Format/Info                      : Audio Video Interleave
File size                        : 672 MiB
Duration                       : 1h 21mn
Overall bit rate               : 1 147 Kbps


Video
ID                             : 0
Format                         : MPEG-4 Visual
Format profile                 : Advanced Simple@L5
Format settings, BVOP            : 2
Format settings, QPel            : No
Format settings, GMC           : No warppoints
Format settings, Matrix          : Default (H.263)
Muxing mode                      : Packed bitstream
Codec ID                       : DX50
Codec ID/Hint                    : DivX 5
Duration                       : 1h 21mn
Bit rate                       : 1 006 Kbps
Width                            : 640 pixels
Height                         : 360 pixels
Display aspect ratio           : 16:9
Frame rate                     : 25.000 fps
Color space                      : YUV
Chroma subsampling             : 4:2:0
Bit depth                        : 8 bits
Scan type                        : Progressive
Compression mode               : Lossy
Bits/(Pixel*Frame)             : 0.175
Stream size                      : 590 MiB (88%)
Writing library                  : XviD 1.2.1 (UTC 2008-12-04)

Audio
ID                             : 1
Format                         : MPEG Audio
Format version                 : Version 1
Format profile                 : Layer 3
Mode                           : Joint stereo
Mode extension                 : MS Stereo
Codec ID                       : 55
Codec ID/Hint                    : MP3
Duration                       : 1h 21mn
Bit rate mode                    : Constant
Bit rate                       : 128 Kbps
Channel(s)                     : 2 channels
Sampling rate                    : 48.0 KHz
Compression mode               : Lossy
Stream size                      : 75.0 MiB (11%)
Alignment                        : Aligned on interleaves
Interleave, duration           : 24 ms (0.60 video frame)



When nuclear weapons are smuggled into America, FBI Agent Shane Daughtry 
(David A.R White) is faced with an impossible task -- find them before 
they are detonated. The clock is ticking and the only people who can help 
are a washed up arms dealer (Lee Majors), a converted Israeli Mossad Agent 
(Stacy Keach) and a by- the-book CIA Deputy Director (Randy Travis).



David A.R. White ... Shane
Anna Zielinski ... Eve
Randy Travis ... Jack Thompson
Lee Majors ... Rockwell
Jaci Velasquez ... Angie
Matthew Tailford ... Nick Tanner

[img]http://www.aedes.us/e/Ay6NO.png[/img]
[img]http://www.aedes.us/e/v1ypl.png[/img]
[img]http://www.aedes.us/e/oVH50.png[/img]
[img]http://img837.imageshack.us/img837/6476/gdtyt.png[/img][/center]